<svg width="73" height="42" xmlns="http://www.w3.org/2000/svg" xmlns:xlink="http://www.w3.org/1999/xlink" xml:space="preserve" overflow="hidden"><g transform="translate(-325 -138)"><g><g><g><g><text fill="#BA0D20" fill-opacity="1" font-family="Arial,Arial_MSFontService,sans-serif" font-style="normal" font-variant="normal" font-weight="400" font-stretch="normal" font-size="120" text-anchor="start" direction="ltr" writing-mode="lr-tb" unicode-bidi="normal" text-decoration="none" transform="matrix(0.03 0 0 0.0294118 379.528 159)">O</text><text fill="#BA0D20" fill-opacity="1" font-family="Arial,Arial_MSFontService,sans-serif" font-style="normal" font-variant="normal" font-weight="400" font-stretch="normal" font-size="120" text-anchor="start" direction="ltr" writing-mode="lr-tb" unicode-bidi="normal" text-decoration="none" transform="matrix(0.03 0 0 0.0294118 327.128 177)">HO</text><text fill="#BA0D20" fill-opacity="1" font-family="Arial,Arial_MSFontService,sans-serif" font-style="normal" font-variant="normal" font-weight="400" font-stretch="normal" font-size="120" text-anchor="start" direction="ltr" writing-mode="lr-tb" unicode-bidi="normal" text-decoration="none" transform="matrix(0.03 0 0 0.0294118 376.351 147)">HN</text><path d="M209.753 142.075 209.959 142.359 204.902 146.033 204.717 145.951 204.696 145.75 209.753 142.075Z" fill="#BA0D20" fill-rule="nonzero" fill-opacity="1" transform="matrix(1.02 0 0 1 182.6 -1.58824)"/><path d="M204.554 146.069 204.717 145.951 204.902 146.033 205.566 152.35 205.196 152.186 204.554 146.069Z" fill="#BA0D20" fill-rule="nonzero" fill-opacity="1" transform="matrix(1.02 0 0 1 182.6 -1.58824)"/><path d="M205.196 152.186 205.566 152.35 200.263 156.203 200.221 155.801 205.196 152.186Z" fill="#BA0D20" fill-rule="nonzero" fill-opacity="1" transform="matrix(1.02 0 0 1 182.6 -1.58824)"/><path d="M200.221 155.801 200.263 156.203 194.614 153.688 194.439 153.418 194.603 153.299 200.221 155.801Z" fill="#BA0D20" fill-rule="nonzero" fill-opacity="1" transform="matrix(1.02 0 0 1 182.6 -1.58824)"/><path d="M194.237 153.169 194.439 153.418 194.264 153.545 188.464 151.661 188.398 151.455 188.536 151.316 194.237 153.169Z" fill="#BA0D20" fill-rule="nonzero" fill-opacity="1" transform="matrix(1.02 0 0 1 182.6 -1.58824)"/><path d="M188.204 151.424 188.398 151.455 188.464 151.661 184.88 156.594 184.664 156.594 184.556 156.445 188.204 151.424Z" fill="#BA0D20" fill-rule="nonzero" fill-opacity="1" transform="matrix(1.02 0 0 1 182.6 -1.58824)"/><path d="M184.597 156.8 184.664 156.594 184.88 156.594 188.464 161.528 188.398 161.734 188.181 161.734 184.597 156.8Z" fill="#BA0D20" fill-rule="nonzero" fill-opacity="1" transform="matrix(1.02 0 0 1 182.6 -1.58824)"/><path d="M188.506 161.882 188.398 161.734 188.464 161.528 192.509 160.214 192.617 160.546 188.506 161.882Z" fill="#BA0D20" fill-rule="nonzero" fill-opacity="1" transform="matrix(1.02 0 0 1 182.6 -1.58824)"/><path d="M194.264 153.545 194.439 153.418 194.614 153.688 194.614 157.755 194.264 157.755 194.264 153.545Z" fill="#BA0D20" fill-rule="nonzero" fill-opacity="1" transform="matrix(1.02 0 0 1 182.6 -1.58824)"/><path d="M188.181 161.734 188.398 161.734 188.506 161.882 184.731 167.078 184.597 166.667 188.181 161.734Z" fill="#BA0D20" fill-rule="nonzero" fill-opacity="1" transform="matrix(1.02 0 0 1 182.6 -1.58824)"/><path d="M184.597 166.667 184.731 167.078 178.643 165.1 178.622 164.909 178.798 164.782 184.597 166.667Z" fill="#BA0D20" fill-rule="nonzero" fill-opacity="1" transform="matrix(1.02 0 0 1 182.6 -1.58824)"/><path d="M178.798 164.782 178.622 164.909 178.447 164.809 178.447 158.658 178.622 158.557 178.798 158.684 178.798 164.782Z" fill="#BA0D20" fill-rule="nonzero" fill-opacity="1" transform="matrix(1.02 0 0 1 182.6 -1.58824)"/><path d="M184.556 156.445 184.664 156.594 184.597 156.8 178.798 158.684 178.622 158.557 178.825 158.307 184.556 156.445Z" fill="#BA0D20" fill-rule="nonzero" fill-opacity="1" transform="matrix(1.02 0 0 1 182.6 -1.58824)"/><path d="M178.476 158.271 178.622 158.557 178.447 158.658 173.121 155.583 173.121 155.179 178.476 158.271Z" fill="#BA0D20" fill-rule="nonzero" fill-opacity="1" transform="matrix(1.02 0 0 1 182.6 -1.58824)"/><path d="M173.121 155.179 173.121 155.583 167.795 158.658 167.445 158.456 173.121 155.179Z" fill="#BA0D20" fill-rule="nonzero" fill-opacity="1" transform="matrix(1.02 0 0 1 182.6 -1.58824)"/><path d="M167.445 158.456 167.795 158.658 167.795 164.809 167.62 164.909 167.445 164.809 167.445 158.456Z" fill="#BA0D20" fill-rule="nonzero" fill-opacity="1" transform="matrix(1.02 0 0 1 182.6 -1.58824)"/><path d="M167.62 165.112 167.62 164.909 167.795 164.809 173.121 167.884 173.121 168.086 172.946 168.187 167.62 165.112Z" fill="#BA0D20" fill-rule="nonzero" fill-opacity="1" transform="matrix(1.02 0 0 1 182.6 -1.58824)"/><path d="M178.447 164.809 178.622 164.909 178.643 165.1 173.296 168.187 173.121 168.086 173.121 167.884 178.447 164.809Z" fill="#BA0D20" fill-rule="nonzero" fill-opacity="1" transform="matrix(1.02 0 0 1 182.6 -1.58824)"/><path d="M172.946 168.187 173.121 168.086 173.296 168.187 173.296 174.539 172.946 174.337 172.946 168.187Z" fill="#BA0D20" fill-rule="nonzero" fill-opacity="1" transform="matrix(1.02 0 0 1 182.6 -1.58824)"/><path d="M172.946 174.337 173.296 174.539 167.62 177.816 167.62 177.412 172.946 174.337Z" fill="#BA0D20" fill-rule="nonzero" fill-opacity="1" transform="matrix(1.02 0 0 1 182.6 -1.58824)"/><path d="M167.62 177.412 167.62 177.816 162.119 174.64 162.119 174.438 162.294 174.337 167.62 177.412Z" fill="#BA0D20" fill-rule="nonzero" fill-opacity="1" transform="matrix(1.02 0 0 1 182.6 -1.58824)"/><path d="M162.294 174.337 162.119 174.438 161.944 174.337 161.944 168.187 162.119 168.086 162.294 168.187 162.294 174.337Z" fill="#BA0D20" fill-rule="nonzero" fill-opacity="1" transform="matrix(1.02 0 0 1 182.6 -1.58824)"/><path d="M167.445 164.809 167.62 164.909 167.62 165.112 162.294 168.187 162.119 168.086 162.294 167.782 167.445 164.809Z" fill="#BA0D20" fill-rule="nonzero" fill-opacity="1" transform="matrix(1.02 0 0 1 182.6 -1.58824)"/><path d="M161.944 167.782 162.119 168.086 161.944 168.187 156.618 165.112 156.618 164.707 161.944 167.782Z" fill="#BA0D20" fill-rule="nonzero" fill-opacity="1" transform="matrix(1.02 0 0 1 182.6 -1.58824)"/><path d="M156.618 164.707 156.618 165.112 151.291 168.187 150.941 167.985 156.618 164.707Z" fill="#BA0D20" fill-rule="nonzero" fill-opacity="1" transform="matrix(1.02 0 0 1 182.6 -1.58824)"/><path d="M150.941 167.985 151.291 168.187 151.291 174.337 151.116 174.438 150.941 174.337 150.941 167.985Z" fill="#BA0D20" fill-rule="nonzero" fill-opacity="1" transform="matrix(1.02 0 0 1 182.6 -1.58824)"/><path d="M151.116 174.64 151.116 174.438 151.291 174.337 156.618 177.412 156.618 177.816 151.116 174.64Z" fill="#BA0D20" fill-rule="nonzero" fill-opacity="1" transform="matrix(1.02 0 0 1 182.6 -1.58824)"/><path d="M161.944 174.337 162.119 174.438 162.119 174.64 156.618 177.816 156.618 177.412 161.944 174.337Z" fill="#BA0D20" fill-rule="nonzero" fill-opacity="1" transform="matrix(1.02 0 0 1 182.6 -1.58824)"/><path d="M150.941 174.337 151.116 174.438 151.116 174.64 147.406 176.783 147.231 176.479 150.941 174.337Z" fill="#BA0D20" fill-rule="nonzero" fill-opacity="1" transform="matrix(1.02 0 0 1 182.6 -1.58824)"/><path d="M162.294 167.782 162.119 168.086 161.944 167.782 161.944 161.734 162.294 161.734 162.294 167.782Z" fill="#BA0D20" fill-rule="nonzero" fill-opacity="1" transform="matrix(1.02 0 0 1 182.6 -1.58824)"/><path d="M178.825 158.307 178.622 158.557 178.476 158.271 179.112 152.221 179.461 152.258 178.825 158.307Z" fill="#BA0D20" fill-rule="nonzero" fill-opacity="1" transform="matrix(1.02 0 0 1 182.6 -1.58824)"/><path d="M188.536 151.316 188.398 151.455 188.204 151.424 186.268 145.468 186.601 145.36 188.536 151.316Z" fill="#BA0D20" fill-rule="nonzero" fill-opacity="1" transform="matrix(1.02 0 0 1 182.6 -1.58824)"/><path d="M194.603 153.299 194.439 153.418 194.237 153.169 193.803 149.039 194.151 149.002 194.603 153.299Z" fill="#BA0D20" fill-rule="nonzero" fill-opacity="1" transform="matrix(1.02 0 0 1 182.6 -1.58824)"/><path d="M195.726 145.9 195.52 145.617 198.893 143.166 198.935 143.568 195.726 145.9Z" fill="#BA0D20" fill-rule="nonzero" fill-opacity="1" transform="matrix(1.02 0 0 1 182.6 -1.58824)"/><path d="M204.696 145.75 204.717 145.951 204.554 146.069 198.935 143.568 198.893 143.166 204.696 145.75Z" fill="#BA0D20" fill-rule="nonzero" fill-opacity="1" transform="matrix(1.02 0 0 1 182.6 -1.58824)"/></g></g></g></g></g></svg>