<svg width="99" height="48" xmlns="http://www.w3.org/2000/svg" xmlns:xlink="http://www.w3.org/1999/xlink" xml:space="preserve" overflow="hidden"><g transform="translate(-310 -228)"><g><g><g><g><text fill="#BA0D20" fill-opacity="1" font-family="Arial,Arial_MSFontService,sans-serif" font-style="normal" font-variant="normal" font-weight="400" font-stretch="normal" font-size="120" text-anchor="start" direction="ltr" writing-mode="lr-tb" unicode-bidi="normal" text-decoration="none" transform="matrix(0.029878 0 0 0.0296296 390.44 248)">O</text><text fill="#000000" fill-opacity="1" font-family="Arial,Arial_MSFontService,sans-serif" font-style="normal" font-variant="normal" font-weight="400" font-stretch="normal" font-size="120" text-anchor="start" direction="ltr" writing-mode="lr-tb" unicode-bidi="normal" text-decoration="none" transform="matrix(0.029878 0 0 0.0296296 341.066 266)">O</text><text fill="#BA0D20" fill-opacity="1" font-family="Arial,Arial_MSFontService,sans-serif" font-style="normal" font-variant="normal" font-weight="400" font-stretch="normal" font-size="120" text-anchor="start" direction="ltr" writing-mode="lr-tb" unicode-bidi="normal" text-decoration="none" transform="matrix(0.029878 0 0 0.0296296 387.279 236)">HN</text><path d="M193.297 139.287 193.505 139.572 188.433 143.257 188.247 143.174 188.226 142.971 193.297 139.287Z" fill="#BA0D20" fill-rule="nonzero" fill-opacity="1" transform="matrix(1.00838 0 0 1 212.402 89.9259)"/><path d="M188.082 143.293 188.247 143.174 188.433 143.257 189.099 149.592 188.727 149.426 188.082 143.293Z" fill="#BA0D20" fill-rule="nonzero" fill-opacity="1" transform="matrix(1.00838 0 0 1 212.402 89.9259)"/><path d="M188.727 149.426 189.099 149.592 183.781 153.456 183.738 153.051 188.727 149.426Z" fill="#BA0D20" fill-rule="nonzero" fill-opacity="1" transform="matrix(1.00838 0 0 1 212.402 89.9259)"/><path d="M183.738 153.051 183.781 153.456 178.116 150.934 177.94 150.663 178.105 150.543 183.738 153.051Z" fill="#BA0D20" fill-rule="nonzero" fill-opacity="1" transform="matrix(1.00838 0 0 1 212.402 89.9259)"/><path d="M177.736 150.411 177.94 150.663 177.763 150.791 171.948 148.901 171.881 148.694 172.021 148.554 177.736 150.411Z" fill="#BA0D20" fill-rule="nonzero" fill-opacity="1" transform="matrix(1.00838 0 0 1 212.402 89.9259)"/><path d="M171.686 148.663 171.881 148.694 171.948 148.901 168.355 153.848 168.137 153.848 168.028 153.698 171.686 148.663Z" fill="#BA0D20" fill-rule="nonzero" fill-opacity="1" transform="matrix(1.00838 0 0 1 212.402 89.9259)"/><path d="M168.069 154.055 168.137 153.848 168.355 153.848 171.948 158.794 171.881 159.001 171.663 159.001 168.069 154.055Z" fill="#BA0D20" fill-rule="nonzero" fill-opacity="1" transform="matrix(1.00838 0 0 1 212.402 89.9259)"/><path d="M171.99 159.151 171.881 159.001 171.948 158.794 175.995 157.479 176.104 157.815 171.99 159.151Z" fill="#BA0D20" fill-rule="nonzero" fill-opacity="1" transform="matrix(1.00838 0 0 1 212.402 89.9259)"/><path d="M177.763 150.791 177.94 150.663 178.116 150.934 178.116 155.003 177.763 155.003 177.763 150.791Z" fill="#BA0D20" fill-rule="nonzero" fill-opacity="1" transform="matrix(1.00838 0 0 1 212.402 89.9259)"/><path d="M171.663 159.001 171.881 159.001 171.99 159.151 168.204 164.363 168.069 163.948 171.663 159.001Z" fill="#BA0D20" fill-rule="nonzero" fill-opacity="1" transform="matrix(1.00838 0 0 1 212.402 89.9259)"/><path d="M168.069 163.948 168.204 164.363 162.098 162.379 162.078 162.187 162.255 162.058 168.069 163.948Z" fill="#BA0D20" fill-rule="nonzero" fill-opacity="1" transform="matrix(1.00838 0 0 1 212.402 89.9259)"/><path d="M162.255 162.058 162.078 162.187 161.902 162.085 161.902 155.918 162.078 155.816 162.255 155.944 162.255 162.058Z" fill="#BA0D20" fill-rule="nonzero" fill-opacity="1" transform="matrix(1.00838 0 0 1 212.402 89.9259)"/><path d="M168.028 153.698 168.137 153.848 168.069 154.055 162.255 155.944 162.078 155.816 162.282 155.565 168.028 153.698Z" fill="#BA0D20" fill-rule="nonzero" fill-opacity="1" transform="matrix(1.00838 0 0 1 212.402 89.9259)"/><path d="M161.931 155.528 162.078 155.816 161.902 155.918 156.561 152.835 156.561 152.428 161.931 155.528Z" fill="#BA0D20" fill-rule="nonzero" fill-opacity="1" transform="matrix(1.00838 0 0 1 212.402 89.9259)"/><path d="M156.561 152.428 156.561 152.835 151.221 155.918 150.868 155.714 156.561 152.428Z" fill="#BA0D20" fill-rule="nonzero" fill-opacity="1" transform="matrix(1.00838 0 0 1 212.402 89.9259)"/><path d="M150.868 155.714 151.221 155.918 151.221 162.085 151.044 162.187 150.868 162.085 150.868 155.714Z" fill="#BA0D20" fill-rule="nonzero" fill-opacity="1" transform="matrix(1.00838 0 0 1 212.402 89.9259)"/><path d="M151.044 162.39 151.044 162.187 151.221 162.085 156.561 165.168 156.561 165.372 156.385 165.474 151.044 162.39Z" fill="#BA0D20" fill-rule="nonzero" fill-opacity="1" transform="matrix(1.00838 0 0 1 212.402 89.9259)"/><path d="M161.902 162.085 162.078 162.187 162.098 162.379 156.738 165.474 156.561 165.372 156.561 165.168 161.902 162.085Z" fill="#BA0D20" fill-rule="nonzero" fill-opacity="1" transform="matrix(1.00838 0 0 1 212.402 89.9259)"/><path d="M156.385 165.474 156.561 165.372 156.738 165.474 156.738 171.844 156.385 171.64 156.385 165.474Z" fill="#BA0D20" fill-rule="nonzero" fill-opacity="1" transform="matrix(1.00838 0 0 1 212.402 89.9259)"/><path d="M156.385 171.64 156.738 171.844 151.044 175.131 151.044 174.724 156.385 171.64Z" fill="#BA0D20" fill-rule="nonzero" fill-opacity="1" transform="matrix(1.00838 0 0 1 212.402 89.9259)"/><path d="M151.044 174.724 151.044 175.131 145.527 171.946 145.527 171.742 145.704 171.64 151.044 174.724Z" fill="#BA0D20" fill-rule="nonzero" fill-opacity="1" transform="matrix(1.00838 0 0 1 212.402 89.9259)"/><path d="M145.704 171.64 145.527 171.742 145.351 171.64 145.351 165.474 145.527 165.372 145.704 165.474 145.704 171.64Z" fill="#BA0D20" fill-rule="nonzero" fill-opacity="1" transform="matrix(1.00838 0 0 1 212.402 89.9259)"/><path d="M150.868 162.085 151.044 162.187 151.044 162.39 145.704 165.474 145.527 165.372 145.704 165.066 150.868 162.085Z" fill="#BA0D20" fill-rule="nonzero" fill-opacity="1" transform="matrix(1.00838 0 0 1 212.402 89.9259)"/><path d="M145.351 165.066 145.527 165.372 145.351 165.474 140.011 162.39 140.011 161.983 145.351 165.066Z" fill="#BA0D20" fill-rule="nonzero" fill-opacity="1" transform="matrix(1.00838 0 0 1 212.402 89.9259)"/><path d="M140.011 161.983 140.011 162.39 134.67 165.474 134.317 165.27 140.011 161.983Z" fill="#BA0D20" fill-rule="nonzero" fill-opacity="1" transform="matrix(1.00838 0 0 1 212.402 89.9259)"/><path d="M134.317 165.27 134.67 165.474 134.67 171.64 134.494 171.742 134.317 171.64 134.317 165.27Z" fill="#BA0D20" fill-rule="nonzero" fill-opacity="1" transform="matrix(1.00838 0 0 1 212.402 89.9259)"/><path d="M134.494 171.946 134.494 171.742 134.67 171.64 140.011 174.724 140.011 175.131 134.494 171.946Z" fill="#BA0D20" fill-rule="nonzero" fill-opacity="1" transform="matrix(1.00838 0 0 1 212.402 89.9259)"/><path d="M145.351 171.64 145.527 171.742 145.527 171.946 140.011 175.131 140.011 174.724 145.351 171.64Z" fill="#BA0D20" fill-rule="nonzero" fill-opacity="1" transform="matrix(1.00838 0 0 1 212.402 89.9259)"/><path d="M134.317 171.64 134.494 171.742 134.494 171.946 130.777 174.092 130.601 173.786 134.317 171.64Z" fill="#BA0D20" fill-rule="nonzero" fill-opacity="1" transform="matrix(1.00838 0 0 1 212.402 89.9259)"/><path d="M145.704 165.066 145.527 165.372 145.351 165.066 145.351 159.001 145.704 159.001 145.704 165.066Z" fill="#BA0D20" fill-rule="nonzero" fill-opacity="1" transform="matrix(1.00838 0 0 1 212.402 89.9259)"/><path d="M162.282 155.565 162.078 155.816 161.931 155.528 162.569 149.463 162.919 149.499 162.282 155.565Z" fill="#BA0D20" fill-rule="nonzero" fill-opacity="1" transform="matrix(1.00838 0 0 1 212.402 89.9259)"/><path d="M172.021 148.554 171.881 148.694 171.686 148.663 169.745 142.69 170.08 142.581 172.021 148.554Z" fill="#BA0D20" fill-rule="nonzero" fill-opacity="1" transform="matrix(1.00838 0 0 1 212.402 89.9259)"/><path d="M178.105 150.543 177.94 150.663 177.736 150.411 177.302 146.279 177.652 146.243 178.105 150.543Z" fill="#BA0D20" fill-rule="nonzero" fill-opacity="1" transform="matrix(1.00838 0 0 1 212.402 89.9259)"/><path d="M179.22 143.132 179.012 142.846 182.406 140.38 182.449 140.785 179.22 143.132Z" fill="#BA0D20" fill-rule="nonzero" fill-opacity="1" transform="matrix(1.00838 0 0 1 212.402 89.9259)"/><path d="M188.226 142.971 188.247 143.174 188.082 143.293 182.449 140.785 182.406 140.38 188.226 142.971Z" fill="#BA0D20" fill-rule="nonzero" fill-opacity="1" transform="matrix(1.00838 0 0 1 212.402 89.9259)"/><text fill="#000000" fill-opacity="1" font-family="Arial,Arial_MSFontService,sans-serif" font-style="normal" font-variant="normal" font-weight="400" font-stretch="normal" font-size="120" text-anchor="start" direction="ltr" writing-mode="lr-tb" unicode-bidi="normal" text-decoration="none" transform="matrix(0.029878 0 0 0.0296296 338.715 257)">OH</text><text fill="#000000" fill-opacity="1" font-family="Arial,Arial_MSFontService,sans-serif" font-style="normal" font-variant="normal" font-weight="400" font-stretch="normal" font-size="120" text-anchor="start" direction="ltr" writing-mode="lr-tb" unicode-bidi="normal" text-decoration="none" transform="matrix(0.029878 0 0 0.0296296 335.702 263)">P</text><text fill="#000000" fill-opacity="1" font-family="Arial,Arial_MSFontService,sans-serif" font-style="normal" font-variant="normal" font-weight="400" font-stretch="normal" font-size="120" text-anchor="start" direction="ltr" writing-mode="lr-tb" unicode-bidi="normal" text-decoration="none" transform="matrix(0.029878 0 0 0.0296296 329.94 260)">O</text><text fill="#000000" fill-opacity="1" font-family="Arial,Arial_MSFontService,sans-serif" font-style="normal" font-variant="normal" font-weight="400" font-stretch="normal" font-size="120" text-anchor="start" direction="ltr" writing-mode="lr-tb" unicode-bidi="normal" text-decoration="none" transform="matrix(0.029878 0 0 0.0296296 332.291 268)">O</text><text fill="#000000" fill-opacity="1" font-family="Arial,Arial_MSFontService,sans-serif" font-style="normal" font-variant="normal" font-weight="400" font-stretch="normal" font-size="120" text-anchor="start" direction="ltr" writing-mode="lr-tb" unicode-bidi="normal" text-decoration="none" transform="matrix(0.029878 0 0 0.0296296 312.247 274)">H</text><text fill="#000000" fill-opacity="1" font-family="Arial,Arial_MSFontService,sans-serif" font-style="normal" font-variant="normal" font-weight="400" font-stretch="normal" font-size="90" text-anchor="start" direction="ltr" writing-mode="lr-tb" unicode-bidi="normal" text-decoration="none" transform="matrix(0.029878 0 0 0.0296296 314.836 275)">2</text><text fill="#000000" fill-opacity="1" font-family="Arial,Arial_MSFontService,sans-serif" font-style="normal" font-variant="normal" font-weight="400" font-stretch="normal" font-size="120" text-anchor="start" direction="ltr" writing-mode="lr-tb" unicode-bidi="normal" text-decoration="none" transform="matrix(0.029878 0 0 0.0296296 316.331 274)">N</text><path d="M125.461 167.924 125.766 168.1 124.654 170.028 124.348 169.851 125.461 167.924Z" fill="#000000" fill-rule="nonzero" fill-opacity="1" transform="matrix(1.00838 0 0 1 212.402 89.9259)"/><path d="M121.359 170.987 121.182 171.293 119.297 170.204 119.473 169.899 121.359 170.987Z" fill="#000000" fill-rule="nonzero" fill-opacity="1" transform="matrix(1.00838 0 0 1 212.402 89.9259)"/><path d="M121.932 169.994 121.756 170.3 119.871 169.212 120.047 168.906 121.932 169.994Z" fill="#000000" fill-rule="nonzero" fill-opacity="1" transform="matrix(1.00838 0 0 1 212.402 89.9259)"/><path d="M122.172 173.62 122.478 173.796 121.441 175.592 121.135 175.416 122.172 173.62Z" fill="#000000" fill-rule="nonzero" fill-opacity="1" transform="matrix(1.00838 0 0 1 212.402 89.9259)"/><path d="M118.329 177.083 118.329 177.436 114.006 177.436 113.802 177.083 118.329 177.083Z" fill="#000000" fill-rule="nonzero" fill-opacity="1" transform="matrix(1.00838 0 0 1 212.402 89.9259)"/><path d="M113.802 177.083 114.006 177.436 110.821 182.952 110.617 182.6 113.802 177.083Z" fill="#000000" fill-rule="nonzero" fill-opacity="1" transform="matrix(1.00838 0 0 1 212.402 89.9259)"/><path d="M110.617 182.6 110.821 182.952 106.049 182.952 106.049 182.6 110.617 182.6Z" fill="#000000" fill-rule="nonzero" fill-opacity="1" transform="matrix(1.00838 0 0 1 212.402 89.9259)"/><path d="M127.327 173.771 127.151 174.077 124.604 172.607 124.78 172.301 127.327 173.771Z" fill="#000000" fill-rule="nonzero" fill-opacity="1" transform="matrix(1.00838 0 0 1 212.402 89.9259)"/></g></g></g></g></g></svg>