<?xml version="1.0" encoding="UTF-8"?>
<svg id="Mass_spectrometer" xmlns="http://www.w3.org/2000/svg" version="1.1" xmlns:xlink="http://www.w3.org/1999/xlink" viewBox="0 0 530.08 510.24">
  <!-- Generator: Adobe Illustrator 29.2.1, SVG Export Plug-In . SVG Version: 2.1.0 Build 116)  -->
  <defs>
    <style>
      .st0, .st1, .st2, .st3, .st4, .st5, .st6, .st7, .st8, .st9, .st10, .st11, .st12, .st13, .st14, .st15, .st16, .st17, .st18, .st19, .st20, .st21, .st22, .st23 {
        stroke-miterlimit: 10;
      }

      .st0, .st1, .st4, .st9, .st13, .st20 {
        stroke-width: .49px;
      }

      .st0, .st24 {
        fill: #e2e2e0;
      }

      .st0, .st9 {
        stroke: #989898;
      }

      .st1 {
        stroke: #8f8f8f;
      }

      .st1, .st2, .st3, .st5, .st6, .st25, .st7, .st8, .st9, .st10, .st11, .st12, .st13, .st14, .st15, .st16, .st17, .st18, .st19, .st21, .st22, .st23 {
        fill: none;
      }

      .st26 {
        fill: #838383;
      }

      .st27 {
        fill: #878785;
      }

      .st28 {
        fill: #587eab;
      }

      .st2 {
        stroke: #373a3a;
      }

      .st2, .st3, .st5, .st7, .st14, .st15, .st16, .st17, .st18, .st21 {
        stroke-width: .99px;
      }

      .st29 {
        fill: #707373;
      }

      .st3 {
        stroke: #010101;
      }

      .st4 {
        fill: #aeaeae;
      }

      .st4, .st10, .st14, .st15, .st19 {
        stroke: #818082;
      }

      .st5 {
        stroke: #7d7d7d;
      }

      .st30 {
        opacity: .41;
      }

      .st30, .st31 {
        fill: #f0efef;
      }

      .st6 {
        stroke: #963740;
      }

      .st6, .st10, .st12, .st19 {
        stroke-width: 1.97px;
      }

      .st7 {
        stroke: #c6c5c5;
      }

      .st32 {
        fill: #3c3c3b;
      }

      .st8, .st17 {
        stroke: #525252;
      }

      .st8, .st22 {
        stroke-width: 1.48px;
      }

      .st33 {
        fill: #212120;
      }

      .st34 {
        clip-path: url(#clippath-1);
      }

      .st35 {
        fill: #abaaaf;
      }

      .st36 {
        fill: #1a1a1a;
      }

      .st37 {
        fill: #e0e1e0;
      }

      .st10, .st11, .st15 {
        stroke-linecap: round;
      }

      .st38 {
        clip-path: url(#clippath-3);
      }

      .st11 {
        stroke-width: 9.87px;
      }

      .st11, .st20 {
        stroke: #b0b0b0;
      }

      .st39 {
        fill: #666;
      }

      .st12 {
        stroke: #171717;
      }

      .st40 {
        fill: #2b2c2b;
      }

      .st13 {
        stroke: #7f8080;
      }

      .st41 {
        fill: #dbdada;
      }

      .st42 {
        fill: #3f3f3f;
      }

      .st43 {
        fill: #9d9e9e;
      }

      .st44 {
        fill: #010101;
      }

      .st16 {
        stroke: #6e8dba;
      }

      .st18 {
        stroke: #232323;
      }

      .st45 {
        clip-path: url(#clippath-2);
      }

      .st20 {
        fill: #e2e2e2;
      }

      .st46 {
        fill: #818082;
      }

      .st47 {
        clip-path: url(#clippath);
      }

      .st21 {
        stroke: #8d8e8e;
      }

      .st22 {
        stroke: #3c3c3b;
      }

      .st23 {
        stroke: #587eab;
        stroke-width: 2.37px;
      }

      .st48 {
        fill: #171717;
      }
    </style>
    <clipPath id="clippath">
      <path class="st25" d="M104.74,353.16v-140.87h1.8v-52.59h2.72v-3.13h83.77v2.43s3.07.58,3.64,1.09c.58.51,6.07,6.39,7.54,8.56,1.47,2.17,2.24,5.3,2.17,6.07-.06.77,0,33.74,0,33.74h81.11v-9.86c0-.79.47-1.51,1.19-1.82l11.01-4.85s2.65-1.34,3.47-1.2c.82.14,1.29.95,1.29.95,0,0,2.13-2.04,5.03-2.13s46.69,0,46.69,0c0,0,2.68.45,2.81,2.62s0,11.44,0,11.44h4.54v-11.05s.83-2.56,3.07-2.43,12.65,0,12.65,0c0,0,3,1.21,2.88,3.13-.13,1.92,0,10.8,0,10.8h1.99c.59,0,1.08.48,1.08,1.08v7.81h23.17c.75,0,1.36.61,1.36,1.36v126.69h-3.58v8.63h-.7v2.94h-18.85l-1.92-1.92h-3.32v1.21h-6.71v1.28h-62.43v-1.15h-7.16v-1.34h-2.49l-13.48-13.48v14.31h-70.33v-.6h-20.75v1.79h-6.35v1.58h-13.12v1.36h-62.2v-2.28l-11.59-.16Z"/>
    </clipPath>
    <clipPath id="clippath-1">
      <path class="st33" d="M411.29,340.95h-23.52l-3.49-1.11-82.9.43-12.18-12.27.09,14.23s13.12,13.72,13.46,13.8,40.81,4,42.86,4.94c2.04.94,34.76,3.83,34.76,3.83l17.64.43,9.71-2.98s1.02-3.92,2.39-4.26,1.19-17.04,1.19-17.04Z"/>
    </clipPath>
    <clipPath id="clippath-2">
      <polygon class="st36" points="306.77 212.55 306.77 213.25 362.62 213.25 362.62 242.9 361.88 243.64 361.88 244.5 363.07 244.5 363.07 301.82 361.66 301.82 361.66 303.22 363.32 303.22 363.32 340.86 301.59 340.86 301.59 301.37 302.01 301.37 302.17 248.65 300.89 248.65 300.89 244.69 301.98 244.69 301.98 216.96 300.96 216.96 300.96 212.59 306.77 212.55"/>
    </clipPath>
    <clipPath id="clippath-3">
      <path class="st0" d="M220.88,251.85h40.27c2.21,0,4.01,1.8,3.97,4.01-.24,15.79-4.25,72.64-24.74,72.09-20.58-.55-23.15-56.42-23.47-72.07-.05-2.22,1.75-4.03,3.97-4.03Z"/>
    </clipPath>
  </defs>
  <g class="st47">
    <path class="st31" d="M174.6,151.46s27.43-2.73,29.82-1.53c2.39,1.19,21.13,1.19,27.43,10.91,6.3,9.71,14.48,12.61,18.23,18.57,3.75,5.96,35.98,27.84,35.98,27.84l1.28,1.53,15.02-4.41,85.18-.19,37.04,5.9s8.18,52.65,8.35,56.91c.17,4.26-5.79,99.34-5.79,99.34,0,0-18.91,19.26-21.3,20.11-2.39.85-192.89,2.04-192.89,2.04l-113.66-21.13s-4.26-5.11-4.26-14.65-2.9-34.08-2.04-40.9c.85-6.82-16.36-113.83-16.36-114.34s13.63-42.09,13.63-42.09c0,0,6.65-7.33,8.86-7.33h39.87c1.02,0,35.61,3.41,35.61,3.41Z"/>
    <path class="st5" d="M331.37,205.01v-7.86c0-1.1.87-2.01,1.98-2.05l26.6-.95c.97-.03,1.78.74,1.78,1.72v9.66"/>
    <path class="st5" d="M378.53,205.46v-11.86c0-1.2-1.11-2.09-2.28-1.84l-9.87,2.13c-.86.19-1.47.94-1.48,1.82l-.11,9.3"/>
    <path class="st5" d="M291.75,208.2v-9.01c0-.97.75-1.77,1.72-1.83l33.91-2.13c1.06-.07,1.95.77,1.95,1.83v8.21"/>
    <g>
      <path class="st33" d="M411.29,340.95h-23.52l-3.49-1.11-82.9.43-12.18-12.27.09,14.23s13.12,13.72,13.46,13.8,40.81,4,42.86,4.94c2.04.94,34.76,3.83,34.76,3.83l17.64.43,9.71-2.98s1.02-3.92,2.39-4.26,1.19-17.04,1.19-17.04Z"/>
      <g class="st34">
        <path class="st40" d="M303.51,353.9l-.77-26.07,135.98-8.43s-18.91,41.92-18.66,43.2c.26,1.28,7.67,14.06-3.58,14.82-11.25.77-112.98-23.52-112.98-23.52Z"/>
        <line class="st3" x1="381.98" y1="355.77" x2="381.47" y2="333.11"/>
        <line class="st3" x1="386.92" y1="355.94" x2="386.75" y2="329.19"/>
        <path class="st44" d="M382.24,351.25h-79.07s-2.56,1.45,1.7,3.66c4.26,2.22,18.49,3.32,18.91,3.32s15.08-.77,15.93-.85,19-.51,19.34-.6,23.43-4,23.43-4l-.26-1.53Z"/>
        <line class="st44" x1="305.81" y1="356.96" x2="305.64" y2="338.82"/>
        <path class="st12" d="M104.74,353.16v-140.87h1.8v-52.59h2.72v-3.13h83.77v2.43s3.07.58,3.64,1.09c.58.51,6.07,6.39,7.54,8.56,1.47,2.17,2.24,5.3,2.17,6.07-.06.77,0,33.74,0,33.74h81.11v-9.86c0-.79.47-1.51,1.19-1.82l11.01-4.85s2.65-1.34,3.47-1.2c.82.14,1.29.95,1.29.95,0,0,2.13-2.04,5.03-2.13s46.69,0,46.69,0c0,0,2.68.45,2.81,2.62s0,11.44,0,11.44h4.54v-11.05s.83-2.56,3.07-2.43,12.65,0,12.65,0c0,0,3,1.21,2.88,3.13-.13,1.92,0,10.8,0,10.8h1.99c.59,0,1.08.48,1.08,1.08v7.81h23.17c.75,0,1.36.61,1.36,1.36v126.69h-3.58v8.63h-.7v2.94h-18.85l-1.92-1.92h-3.32v1.21h-6.71v1.28h-62.43v-1.15h-7.16v-1.34h-2.49l-13.48-13.48v14.31h-70.33v-.6h-20.75v1.79h-6.35v1.58h-13.12v1.36h-62.2v-2.28l-11.59-.16Z"/>
      </g>
    </g>
    <polygon class="st43" points="301.98 340.82 302.23 217.23 302.02 212.59 302.62 212.59 302.92 204.28 287.75 208.37 288.26 328.12 301.98 340.82"/>
    <line class="st10" x1="300.96" y1="303.8" x2="285.11" y2="294.28"/>
    <line class="st19" x1="288.18" y1="217.85" x2="300.64" y2="215.17"/>
    <polyline class="st13" points="101.5 212.04 183.63 212.04 183.63 352.94 101.46 352.94"/>
    <path class="st26" d="M196.93,353.73v-197.15s29.14,21.98,28.63,22.49c-.51.51-2.9,19.08-2.9,20.96s-14.72,8.93-14.72,8.93h-8.35l.07,143.66-2.73,1.11Z"/>
    <polygon class="st37" points="198.46 356.45 198.71 208.37 287.83 208.37 287.15 215.1 211.92 215.1 211.24 365.91 198.46 356.45"/>
    <line class="st19" x1="287.79" y1="245.78" x2="300.57" y2="246.74"/>
    <path class="st28" d="M102.35,212.12h14.36s1.62,54.74,4.05,86.44c1.98,25.81,7.54,54.44,7.54,54.44l-27.22.13,1.28-141.01Z"/>
    <line class="st2" x1="384.79" y1="244.43" x2="301.34" y2="244.24"/>
    <line class="st2" x1="384.79" y1="301.95" x2="301.34" y2="301.75"/>
    <path class="st7" d="M211.62,352.49v-135.85c0-1.34,1.09-2.43,2.43-2.43h74.25"/>
    <path class="st1" d="M109.57,153.12v18.85s20.13,4.98,43.52,4.6c23.39-.38,39.87-3.83,39.87-3.83v-23.32l-83.39,3.71Z"/>
    <path class="st17" d="M109.57,171.97s20.13,4.98,43.52,4.6c23.39-.38,39.87-3.83,39.87-3.83"/>
    <line class="st11" x1="127.49" y1="185.45" x2="176.14" y2="185.45"/>
    <g>
      <polygon class="st36" points="306.77 212.55 306.77 213.25 362.62 213.25 362.62 242.9 361.88 243.64 361.88 244.5 363.07 244.5 363.07 301.82 361.66 301.82 361.66 303.22 363.32 303.22 363.32 340.86 301.59 340.86 301.59 301.37 302.01 301.37 302.17 248.65 300.89 248.65 300.89 244.69 301.98 244.69 301.98 216.96 300.96 216.96 300.96 212.59 306.77 212.55"/>
      <g class="st45">
        <line class="st17" x1="299.68" y1="244.24" x2="368.56" y2="244.31"/>
        <line class="st17" x1="299.29" y1="301.82" x2="367.6" y2="301.95"/>
        <line class="st16" x1="307.09" y1="298.62" x2="360.77" y2="299.2"/>
        <line class="st16" x1="305.81" y1="241.01" x2="359.79" y2="241.01"/>
        <line class="st16" x1="307.47" y1="337.92" x2="361.96" y2="338.47"/>
      </g>
    </g>
    <polygon class="st46" points="385.27 339.68 388.31 341.76 388.31 209.32 384.95 214.34 385.27 339.68"/>
    <path class="st42" d="M394.08,341.12v-132.91l18.96.77s9.84,44.73,9.59,51.5c-.26,6.77-.51,24.54-.51,32.97s-8.43,47.29-8.43,47.29c0,0-19.75.23-19.6.38Z"/>
    <line class="st23" x1="384.98" y1="212.76" x2="384.98" y2="340.09"/>
    <line class="st10" x1="288.24" y1="326.36" x2="301.34" y2="338.5"/>
    <line class="st15" x1="288.88" y1="298.88" x2="300.83" y2="306.29"/>
    <line class="st15" x1="289.26" y1="294.6" x2="301.85" y2="301.56"/>
    <line class="st14" x1="301.59" y1="244.56" x2="286.26" y2="244.56"/>
    <line class="st29" x1="301.53" y1="212.8" x2="288.5" y2="215.3"/>
    <path class="st35" d="M227.02,266.67s1.05-4.22,3.83-6.04c2.78-1.82,7.41-2.2,7.41-2.2,0,0,7.86-.32,10.99,2.49,3.13,2.81,3.87,5.66,3.87,5.66l-26.1.1Z"/>
    <g>
      <path class="st24" d="M220.88,251.85h40.27c2.21,0,4.01,1.8,3.97,4.01-.24,15.79-4.25,72.64-24.74,72.09-20.58-.55-23.15-56.42-23.47-72.07-.05-2.22,1.75-4.03,3.97-4.03Z"/>
      <g class="st38">
        <path class="st4" d="M219.23,300.41h42.75l-1.53,22.05s-13.04,10.35-13.48,10.42-19.94-1.73-19.94-1.73c0,0-6.2-10.29-6.2-14.82s-1.6-15.91-1.6-15.91Z"/>
        <path class="st39" d="M226.41,285.1v5.07s4.69.72,6.69.77c.04-1.07.17-1.45.17-1.45,0,0,2.68.51,6.82.47,4.13-.04,7.2-.38,7.2-.38l.3,1.49,6.3-.72.09-5.54s-4.77.17-5.37.3-22.19,0-22.19,0Z"/>
        <path class="st20" d="M226.38,285.98c9.1,4.21,18.19,4.22,27.27,0,.37-.17.62-.56.62-.97v-18.01c0-.58-.47-1.04-1.04-1.04l-26.45-.04c-.58,0-1.05.47-1.05,1.05l.04,18.04c0,.41.24.79.62.97Z"/>
        <path class="st39" d="M231.47,270.78h17.17v9.29c-5.83,2.69-11.53,2.77-17.08,0l-.09-9.29Z"/>
        <ellipse class="st32" cx="228.52" cy="268.14" rx=".93" ry="1.37"/>
        <ellipse class="st32" cx="251.5" cy="268.14" rx=".93" ry="1.37"/>
      </g>
      <path class="st9" d="M220.88,251.85h40.27c2.21,0,4.01,1.8,3.97,4.01-.24,15.79-4.25,72.64-24.74,72.09-20.58-.55-23.15-56.42-23.47-72.07-.05-2.22,1.75-4.03,3.97-4.03Z"/>
    </g>
    <line class="st8" x1="389.65" y1="205.14" x2="302.57" y2="205.14"/>
    <path class="st30" d="M285.88,195.81l.58,12.65,16.61-3.64,88.82.26-5.88-18.85s-52.85-4.47-55.15-4.47-47.03,3.13-47.41,4.09-4.92,5.69-4.92,6.13.38,2.17.77,2.36,6.58,1.47,6.58,1.47Z"/>
    <line class="st17" x1="304.85" y1="188.65" x2="304.85" y2="205.2"/>
    <line class="st5" x1="288.69" y1="208.65" x2="288.69" y2="195.17"/>
    <path class="st29" d="M98.94,353.04h105.65l4.26-1.02,4.6-.51,81.28-.17.68,15.17s-.17,5.28-22.15,11.76-155.41,8.18-163.07,9.2c-7.67,1.02-91.34-8.01-88.1-9.88,3.24-1.87,76.85-24.54,76.85-24.54Z"/>
    <path class="st28" d="M264.92,352.62s8.31-48.69,9.84-73.1c1.53-24.41,2.68-65.56,2.68-65.56h11.5l.13,150.81s-4.86,1.28-9.97.38c-5.11-.89-8.43-1.79-9.46-2.56-1.02-.77-4.73-9.97-4.73-9.97Z"/>
    <polyline class="st18" points="289.11 353.56 289.11 214.08 287.66 213.57 287.66 208.54"/>
  </g>
  <path class="st27" d="M236.65,257.92v5.5c0,1.69,1.37,3.07,3.07,3.07h.83c1.69,0,3.07-1.37,3.07-3.07v-5.72l-6.97.22Z"/>
  <path class="st32" d="M235.39,257.45v-5.88l-5.28-4.43c.4-.91,1.07-1.72,2.17-2.39l2.64,1.79s1.66-1.92,2.56-2.17c.34-1.07.89-1.19,2.6-1.19s2.43,1.24,2.43,1.24c0,0,1.87.81,2.43,2.09.26,1.41.13,11.2.13,11.2,0,0-1.49,2.22-4.52,2.13-3.02-.09-5.15-2.39-5.15-2.39Z"/>
  <path class="st22" d="M232.16,246.71s-2.47-2.22-3.83-4.3c-1.36-2.09-1.87-6.65-.3-8.26s5.58-.89,7.07.72c1.49,1.62,5.37,5.71,5.37,5.71"/>
  <path class="st18" d="M238.5,244.37s1.53,1.53,3.15,0"/>
  <line class="st6" x1="240.25" y1="236.02" x2="240.25" y2="244.71"/>
  <ellipse class="st41" cx="240.08" cy="248.65" rx="1.49" ry=".62"/>
  <line class="st21" x1="183.63" y1="212.04" x2="183.63" y2="352.94"/>
  <path class="st48" d="M193.03,156.57v2.43s3.07.58,3.64,1.09c.58.51,6.07,6.39,7.54,8.56s2.24,5.3,2.17,6.07c-.06.69-.01,27.26,0,32.75,0,.55.45.99,1,.99h79.11c.55,0,1-.45,1-1v-8.21c0-1.19.7-2.26,1.79-2.74l10.41-4.58s2.39-1.21,3.33-1.21c.05,0,.09,0,.13.01.82.14,1.29.95,1.29.95,0,0,2.13-2.04,5.03-2.13.97-.03,6.48-.04,13.39-.04,13.83,0,33.3.04,33.3.04,0,0,2.68.45,2.81,2.62.1,1.73.04,7.96.01,10.43,0,.56.44,1.01,1,1.01h2.52c.55,0,1-.45,1-1v-10.05s.79-2.43,2.91-2.43c.05,0,.11,0,.16,0,.75.04,2.4.06,4.27.06,3.75,0,8.38-.06,8.38-.06,0,0,3,1.21,2.88,3.13-.1,1.52-.04,7.44-.01,9.81,0,.55.45.99,1,.99,1.15,0,2.08.93,2.08,2.08v5.8c0,.55.45,1,1,1h21.17c1.31,0,2.37,1.06,2.37,2.37v124.69c0,.55-.45,1-1,1h-1.57c-.55,0-1,.45-1,1v7.62h-.7v1.94c0,.55-.45,1-1,1h-17.43c-.27,0-.52-.11-.71-.29l-1.33-1.33c-.19-.19-.44-.29-.71-.29h-2.91v1.21h-6.71v1.28h-62.43v-1.15h-7.16v-1.34h-2.08c-.27,0-.52-.11-.71-.29l-13.19-13.19v13.31c0,.55-.45,1-1,1h-69.33v-.6h-20.75v1.79h-6.35v1.58h-13.12v1.36h-62.2v-2.28l-10.6-.15c-.55,0-.99-.45-.99-1v-139.88h1.8v-52.59h2.72v-2.13c0-.55.45-1,1-1h82.77M195,154.6h-84.75c-1.64,0-2.98,1.34-2.98,2.98v.16h-2.72v52.59h-1.8v141.85c0,1.62,1.32,2.95,2.94,2.98l8.65.12v2.31h66.14v-1.36h13.12v-1.58h6.35v-1.79h16.8v.6h71.3c1.64,0,2.98-1.34,2.98-2.98v-8.55l9.82,9.82c.56.56,1.31.87,2.1.87h.1v1.34h7.16v1.15h66.38v-1.28h6.71v-1.21h.53l1.05,1.05c.56.56,1.31.87,2.1.87h17.43c1.63,0,2.96-1.32,2.98-2.94h.7v-8.63h.6c1.64,0,2.98-1.34,2.98-2.98v-124.69c0-2.39-1.95-4.34-4.34-4.34h-20.2v-4.83c0-1.9-1.32-3.5-3.09-3.94-.05-4.6-.04-7.86.02-8.81.22-3.25-3.66-4.91-4.11-5.09l-.37-.15h-.4s-4.66.06-8.35.06c-2.66,0-3.73-.03-4.16-.05-.09,0-.18,0-.27,0-2.8,0-4.32,2.39-4.78,3.8l-.1.3v9.39h-.57c.03-3.27.06-8.03-.03-9.58-.17-2.96-2.99-4.21-4.46-4.45l-.16-.03h-.16s-19.47-.04-33.3-.04c-8.17,0-12.56.01-13.45.04-2.05.06-3.75.85-4.88,1.57-.31-.16-.66-.29-1.05-.36-.15-.03-.3-.04-.46-.04-1.21,0-3.12.87-4.18,1.4l-10.36,4.56c-1.8.79-2.97,2.58-2.97,4.55v7.23h-77.17c-.03-14.25-.04-30.73,0-31.65.1-1.24-.84-4.83-2.51-7.3-1.56-2.31-7.11-8.26-7.86-8.93-.22-.2-.75-.67-2.98-1.21v-2.8h0Z"/>
</svg>