<svg xmlns="http://www.w3.org/2000/svg" width="1200" height="1200" viewBox="210 230 835 710" role="img" aria-labelledby="title desc">
  <title id="title">Xing Lab logo - Deep Space</title>
  <desc id="desc">A stylized Xing Lab mark with a dark orbital sweep, a rising accent stroke, and a solid circular dot.</desc>
  <defs>
    <linearGradient id="blueRibbon" x1="268" y1="895" x2="858" y2="345" gradientUnits="userSpaceOnUse">
      <stop offset="0" stop-color="#e2e9f7"/>
      <stop offset="0.30" stop-color="#abbdd9"/>
      <stop offset="0.64" stop-color="#607ca9"/>
      <stop offset="1" stop-color="#34547c"/>
    </linearGradient>

    <linearGradient id="orbitRibbon" x1="238" y1="292" x2="920" y2="886" gradientUnits="userSpaceOnUse">
      <stop offset="0" stop-color="#080f1c"/>
      <stop offset="0.54" stop-color="#152238"/>
      <stop offset="1" stop-color="#050b15"/>
    </linearGradient>

    <filter id="subtleDepth" x="-8%" y="-8%" width="116%" height="116%">
      <feDropShadow dx="0" dy="4" stdDeviation="3" flood-color="#111b2b" flood-opacity="0.06"/>
    </filter>
  </defs>


  <g filter="url(#subtleDepth)">
    <path d="M 266.44 895.24 L 272.96 883.47 L 279.93 872.02 L 287.29 860.87 L 294.98 850 L 302.94 839.38 L 311.06 828.95 L 319.28 818.68 L 327.53 808.5 L 335.74 798.37 L 343.87 788.24 L 351.9 778.09 L 359.98 768.03 L 368.26 758.18 L 376.71 748.52 L 385.33 739.06 L 394.09 729.79 L 402.98 720.7 L 411.98 711.78 L 421.08 703.01 L 430.24 694.4 L 439.45 685.91 L 448.71 677.54 L 457.98 669.28 L 467.26 661.12 L 476.53 653.03 L 485.78 645.02 L 495.01 637.07 L 504.2 629.18 L 513.34 621.34 L 522.49 613.62 L 531.66 606.03 L 540.84 598.58 L 550.03 591.26 L 559.21 584.08 L 568.38 577.02 L 577.53 570.09 L 586.65 563.27 L 595.72 556.57 L 604.75 549.97 L 613.72 543.49 L 622.62 537.1 L 631.45 530.81 L 638.18 526.04 L 644.88 521.29 L 651.5 516.58 L 658.06 511.91 L 664.54 507.28 L 670.94 502.69 L 677.28 498.14 L 683.55 493.63 L 689.74 489.16 L 695.87 484.72 L 701.92 480.32 L 707.91 475.95 L 713.83 471.63 L 719.68 467.34 L 725.47 463.1 L 731.21 458.92 L 736.9 454.79 L 742.53 450.71 L 748.11 446.68 L 753.64 442.71 L 759.11 438.78 L 764.53 434.91 L 769.89 431.08 L 775.21 427.3 L 780.47 423.57 L 785.68 419.88 L 790.83 416.25 L 795.93 412.65 L 800.99 409.11 L 805.99 405.6 L 810.93 402.14 L 815.83 398.73 L 820.68 395.36 L 825.47 392.03 L 830.22 388.74 L 834.92 385.5 L 839.57 382.29 L 844.17 379.13 L 848.72 376.01 L 853.22 372.93 L 857.68 369.9 L 862.11 366.89 L 865.62 363.76 L 868.2 359.84 L 869.68 355.38 L 869.95 350.69 L 869 346.08 L 866.89 341.89 L 863.76 338.38 L 859.84 335.8 L 855.38 334.32 L 850.69 334.05 L 846.08 335 L 841.89 337.11 L 837.42 340.15 L 832.9 343.24 L 828.34 346.39 L 823.74 349.58 L 819.1 352.82 L 814.42 356.1 L 809.71 359.44 L 804.95 362.82 L 800.14 366.24 L 795.3 369.72 L 790.41 373.24 L 785.48 376.81 L 780.5 380.43 L 775.47 384.09 L 770.4 387.79 L 765.28 391.55 L 760.1 395.34 L 754.88 399.18 L 749.6 403.07 L 744.27 407 L 738.89 410.97 L 733.45 414.98 L 727.95 419.04 L 722.4 423.13 L 716.79 427.27 L 711.11 431.45 L 705.38 435.66 L 699.58 439.92 L 693.72 444.22 L 687.81 448.57 L 681.85 452.98 L 675.83 457.45 L 669.76 461.97 L 663.64 466.55 L 657.46 471.18 L 651.23 475.87 L 644.93 480.62 L 638.58 485.42 L 632.18 490.28 L 625.71 495.19 L 619.18 500.15 L 612.55 505.19 L 603.87 511.86 L 595.12 518.64 L 586.29 525.53 L 577.4 532.52 L 568.45 539.62 L 559.44 546.83 L 550.38 554.14 L 541.27 561.54 L 532.11 569.05 L 522.92 576.66 L 513.69 584.36 L 504.44 592.16 L 495.15 600.05 L 485.88 608.08 L 476.67 616.29 L 467.53 624.7 L 458.47 633.28 L 449.49 642.05 L 440.59 650.99 L 431.78 660.09 L 423.05 669.34 L 414.39 678.74 L 405.82 688.26 L 397.31 697.92 L 388.87 707.68 L 380.49 717.54 L 372.16 727.5 L 363.88 737.55 L 355.65 747.69 L 347.46 757.91 L 339.31 768.21 L 331.36 778.71 L 323.77 789.53 L 316.54 800.64 L 309.62 812 L 302.99 823.56 L 296.58 835.28 L 290.32 847.1 L 284.14 858.99 L 277.99 870.91 L 271.81 882.83 L 265.56 894.76 Z" fill="url(#blueRibbon)"/>
    <path d="M 610.3 404.6 L 602.95 398.87 L 595.74 392.98 L 588.64 386.96 L 581.6 380.89 L 574.58 374.83 L 567.51 368.87 L 560.35 363.09 L 553.06 357.57 L 545.61 352.38 L 538 347.54 L 530.33 342.91 L 522.7 338.33 L 515.11 333.81 L 507.55 329.36 L 500.03 324.98 L 492.55 320.69 L 485.09 316.49 L 477.67 312.41 L 470.27 308.44 L 462.89 304.61 L 455.54 300.93 L 448.21 297.41 L 440.91 294.05 L 433.64 290.87 L 426.4 287.88 L 419.19 285.07 L 412.03 282.47 L 404.91 280.06 L 397.84 277.85 L 390.85 275.8 L 383.93 273.88 L 377.1 272.11 L 370.35 270.49 L 363.69 269.03 L 357.12 267.71 L 350.63 266.56 L 344.23 265.58 L 337.93 264.77 L 331.72 264.13 L 325.6 263.67 L 319.58 263.4 L 313.58 263.33 L 308.57 263.55 L 303.69 264.09 L 298.94 264.95 L 294.34 266.13 L 289.89 267.65 L 285.62 269.49 L 281.54 271.66 L 277.66 274.13 L 274.02 276.91 L 270.62 279.96 L 267.46 283.28 L 264.57 286.84 L 261.94 290.62 L 259.56 294.6 L 257.45 298.77 L 255.58 303.1 L 253.96 307.6 L 252.57 312.24 L 251.41 317.03 L 250.48 321.95 L 249.77 327.01 L 249.27 332.19 L 248.98 337.49 L 248.9 342.91 L 249.02 348.44 L 249.35 354.09 L 249.87 359.84 L 250.6 365.7 L 251.53 371.66 L 252.65 377.71 L 253.97 383.86 L 255.47 390.09 L 257.14 396.42 L 258.98 402.83 L 261 409.33 L 263.18 415.91 L 265.54 422.57 L 268.06 429.3 L 270.76 436.11 L 273.63 442.98 L 276.66 449.92 L 280.04 457.27 L 285.59 467.8 L 291.28 478.14 L 297.2 488.43 L 303.36 498.68 L 309.74 508.88 L 316.36 519.02 L 323.2 529.11 L 330.27 539.13 L 337.56 549.08 L 345.08 558.95 L 352.81 568.74 L 360.76 578.44 L 368.93 588.04 L 377.31 597.54 L 385.89 606.93 L 394.68 616.21 L 403.65 625.38 L 412.76 634.48 L 422 643.52 L 431.37 652.49 L 440.87 661.39 L 450.48 670.22 L 460.22 678.96 L 470.08 687.62 L 480.06 696.19 L 490.16 704.65 L 500.38 713.01 L 510.72 721.25 L 521.17 729.37 L 531.74 737.35 L 542.43 745.19 L 553.22 752.89 L 564.12 760.43 L 575.12 767.81 L 586.22 775.02 L 597.41 782.07 L 608.69 788.93 L 620.05 795.61 L 631.49 802.1 L 643 808.41 L 654.56 814.55 L 666.15 820.5 L 675.07 824.93 L 683.85 829.19 L 692.56 833.32 L 701.18 837.3 L 709.71 841.15 L 718.13 844.87 L 726.46 848.44 L 734.68 851.88 L 742.79 855.19 L 750.78 858.36 L 758.66 861.39 L 766.42 864.28 L 774.06 867.02 L 781.57 869.62 L 788.97 872.07 L 796.25 874.31 L 803.42 876.32 L 810.47 878.12 L 817.4 879.69 L 824.2 881.04 L 830.87 882.18 L 837.4 883.11 L 843.78 883.82 L 850.01 884.32 L 856.09 884.62 L 862.01 884.7 L 867.77 884.58 L 873.38 884.23 L 878.82 883.67 L 884.1 882.87 L 889.21 881.85 L 894.16 880.57 L 898.92 879.03 L 903.51 877.23 L 907.89 875.13 L 912.06 872.74 L 915.99 870.04 L 919.66 867.02 L 923.03 863.7 L 926.07 860.08 L 928.77 856.19 L 930.94 852.31 L 932.76 848.66 L 934.38 844.85 L 935.79 840.97 L 936.97 837.01 L 937.95 833 L 938.71 828.93 L 939.28 824.81 L 939.65 820.64 L 939.84 816.42 L 939.85 812.16 L 939.69 807.87 L 939.37 803.52 L 938.88 799.14 L 938.21 794.72 L 937.33 790.28 L 936.25 785.81 L 934.97 781.33 L 933.5 776.83 L 931.82 772.33 L 929.96 767.83 L 927.92 763.33 L 925.69 758.83 L 923.29 754.34 L 920.72 749.86 L 917.98 745.4 L 915.09 740.94 L 912.05 736.5 L 908.87 732.08 L 905.55 727.66 L 902.12 723.26 L 898.56 718.86 L 894.9 714.47 L 891.15 710.07 L 887.31 705.67 L 883.39 701.26 L 879.4 696.83 L 875.34 692.39 L 871.23 687.91 L 867.08 683.41 L 862.88 678.87 L 858.64 674.29 L 854.37 669.66 L 853.63 670.34 L 857.83 675.02 L 861.85 679.76 L 865.7 684.58 L 869.38 689.44 L 872.88 694.35 L 876.22 699.29 L 879.39 704.26 L 882.4 709.23 L 885.26 714.21 L 887.96 719.17 L 890.51 724.12 L 892.93 729.03 L 895.21 733.91 L 897.35 738.74 L 899.38 743.51 L 901.28 748.22 L 903.06 752.87 L 904.73 757.44 L 906.29 761.93 L 907.74 766.35 L 909.08 770.67 L 910.32 774.92 L 911.46 779.07 L 912.49 783.13 L 913.41 787.1 L 914.24 790.98 L 914.95 794.77 L 915.57 798.46 L 916.07 802.06 L 916.45 805.57 L 916.66 808.99 L 916.71 812.32 L 916.61 815.54 L 916.35 818.66 L 915.94 821.68 L 915.39 824.58 L 914.69 827.36 L 913.84 830.04 L 912.86 832.6 L 911.74 835.05 L 910.49 837.39 L 909.06 839.69 L 907.55 841.87 L 906.06 843.57 L 904.43 845.1 L 902.63 846.47 L 900.66 847.7 L 898.49 848.81 L 896.1 849.79 L 893.47 850.64 L 890.6 851.35 L 887.48 851.91 L 884.11 852.32 L 880.49 852.55 L 876.64 852.62 L 872.55 852.51 L 868.23 852.22 L 863.69 851.75 L 858.93 851.11 L 853.97 850.29 L 848.8 849.3 L 843.44 848.14 L 837.88 846.82 L 832.13 845.35 L 826.2 843.73 L 820.08 841.97 L 813.78 840.07 L 807.31 838.05 L 800.65 835.91 L 793.83 833.64 L 786.86 831.18 L 779.76 828.54 L 772.52 825.72 L 765.16 822.71 L 757.68 819.52 L 750.09 816.16 L 742.38 812.63 L 734.58 808.93 L 726.67 805.07 L 718.67 801.04 L 710.58 796.87 L 702.41 792.54 L 694.14 788.07 L 685.85 783.5 L 674.9 777.31 L 664 771 L 653.12 764.58 L 642.26 758.05 L 631.44 751.44 L 620.65 744.73 L 609.89 737.94 L 599.17 731.06 L 588.5 724.08 L 577.88 717.01 L 567.33 709.85 L 556.84 702.59 L 546.43 695.24 L 536.09 687.79 L 525.86 680.23 L 515.72 672.57 L 505.69 664.81 L 495.78 656.93 L 486.01 648.94 L 476.37 640.83 L 466.88 632.61 L 457.56 624.27 L 448.4 615.82 L 439.41 607.26 L 430.61 598.58 L 422 589.81 L 413.53 580.97 L 405.21 572.09 L 397.04 563.17 L 389.02 554.19 L 381.17 545.17 L 373.48 536.1 L 365.98 526.98 L 358.66 517.81 L 351.53 508.59 L 344.61 499.32 L 337.9 489.99 L 331.41 480.61 L 325.16 471.18 L 319.14 461.69 L 313.38 452.16 L 307.96 442.73 L 304.94 436.71 L 301.94 430.39 L 299.12 424.14 L 296.48 417.96 L 294.03 411.85 L 291.77 405.83 L 289.69 399.89 L 287.8 394.05 L 286.09 388.31 L 284.56 382.68 L 283.22 377.17 L 282.06 371.78 L 281.06 366.53 L 280.22 361.41 L 279.53 356.44 L 279.01 351.62 L 278.65 346.96 L 278.44 342.46 L 278.38 338.13 L 278.48 333.97 L 278.73 329.99 L 279.13 326.21 L 279.67 322.61 L 280.34 319.21 L 281.15 316.01 L 282.08 313.01 L 283.13 310.22 L 284.29 307.62 L 285.56 305.22 L 286.93 303.01 L 288.4 300.98 L 289.98 299.12 L 291.68 297.42 L 293.49 295.87 L 295.45 294.46 L 297.55 293.18 L 299.84 292.04 L 302.31 291.04 L 305 290.19 L 307.9 289.5 L 311.04 288.99 L 314.42 288.67 L 319.41 288.49 L 324.64 288.48 L 330.04 288.65 L 335.59 288.98 L 341.28 289.49 L 347.11 290.18 L 353.07 291.04 L 359.15 292.07 L 365.36 293.28 L 371.67 294.67 L 378.09 296.23 L 384.6 297.97 L 391.21 299.88 L 397.91 301.94 L 404.7 304.11 L 411.6 306.39 L 418.6 308.77 L 425.68 311.25 L 432.86 313.83 L 440.12 316.52 L 447.46 319.32 L 454.87 322.24 L 462.34 325.28 L 469.87 328.46 L 477.44 331.77 L 485.04 335.24 L 492.66 338.86 L 500.3 342.64 L 507.94 346.6 L 515.56 350.72 L 523.17 355.03 L 530.75 359.52 L 538.39 364.02 L 546.19 368.39 L 554.13 372.66 L 562.18 376.88 L 570.29 381.13 L 578.41 385.49 L 586.46 390.03 L 594.4 394.82 L 602.16 399.94 L 609.7 405.4 Z" fill="url(#orbitRibbon)"/>
    <circle cx="953" cy="296" r="50" fill="#405f8a"/>
  </g>
</svg>
