<svg xmlns="http://www.w3.org/2000/svg" width="1200" height="1200" viewBox="190 205 880 740" role="img" aria-labelledby="title desc">
  <title id="title">Xing Lab logo - Deep Space</title>
  <desc id="desc">A stylized Xing Lab mark with a dark orbital sweep, a rising accent stroke, and a solid circular dot.</desc>
  <defs>
    <linearGradient id="blueRibbon" x1="302" y1="895" x2="806" y2="388" gradientUnits="userSpaceOnUse">
      <stop offset="0" stop-color="#cbd8ea"/>
      <stop offset="0.30" stop-color="#9fb1d0"/>
      <stop offset="0.64" stop-color="#607ca9"/>
      <stop offset="1" stop-color="#2d496f"/>
    </linearGradient>

    <linearGradient id="orbitRibbon" x1="238" y1="292" x2="920" y2="886" gradientUnits="userSpaceOnUse">
      <stop offset="0" stop-color="#080f1c"/>
      <stop offset="0.54" stop-color="#152238"/>
      <stop offset="1" stop-color="#050b15"/>
    </linearGradient>

    <filter id="subtleDepth" x="-8%" y="-8%" width="116%" height="116%">
      <feDropShadow dx="0" dy="4" stdDeviation="3" flood-color="#111b2b" flood-opacity="0.06"/>
    </filter>
  </defs>


  <g filter="url(#subtleDepth)">
    <path d="M 302.43 895.25 L 305.39 890.34 L 308.44 885.49 L 311.59 880.7 L 314.82 875.96 L 318.14 871.28 L 321.54 866.64 L 325.01 862.06 L 328.54 857.52 L 332.11 853.02 L 335.73 848.55 L 339.38 844.1 L 343.05 839.67 L 346.73 835.26 L 350.41 830.85 L 354.08 826.44 L 357.72 822.02 L 361.34 817.59 L 364.92 813.14 L 368.46 808.66 L 371.95 804.15 L 375.39 799.6 L 378.77 795.02 L 382.11 790.41 L 385.46 785.8 L 388.85 781.23 L 392.29 776.69 L 395.77 772.18 L 399.28 767.71 L 402.84 763.26 L 406.43 758.84 L 410.06 754.45 L 413.72 750.09 L 417.42 745.76 L 421.14 741.45 L 424.9 737.17 L 428.68 732.92 L 432.49 728.68 L 436.32 724.47 L 440.16 720.28 L 444.03 716.11 L 447.92 711.95 L 451.82 707.81 L 455.73 703.69 L 459.65 699.57 L 463.58 695.47 L 467.51 691.37 L 471.45 687.28 L 475.4 683.2 L 479.34 679.12 L 483.29 675.05 L 487.23 670.97 L 491.17 666.9 L 495.11 662.82 L 499.04 658.74 L 502.97 654.66 L 506.9 650.58 L 510.82 646.49 L 514.73 642.39 L 518.66 638.31 L 522.61 634.25 L 526.59 630.22 L 530.59 626.21 L 534.62 622.23 L 538.67 618.28 L 542.75 614.35 L 546.85 610.44 L 550.97 606.56 L 555.12 602.7 L 559.28 598.86 L 563.47 595.05 L 567.68 591.27 L 571.91 587.5 L 576.15 583.76 L 580.42 580.03 L 584.7 576.33 L 589 572.65 L 593.31 568.99 L 597.64 565.34 L 601.98 561.72 L 606.34 558.11 L 610.7 554.52 L 615.08 550.94 L 619.47 547.38 L 623.88 543.83 L 628.29 540.29 L 632.71 536.77 L 637.14 533.26 L 641.57 529.76 L 646.02 526.27 L 650.47 522.79 L 654.92 519.32 L 659.39 515.86 L 663.86 512.41 L 668.33 508.97 L 672.81 505.53 L 677.3 502.1 L 681.79 498.68 L 686.29 495.27 L 690.8 491.87 L 695.32 488.49 L 699.86 485.13 L 704.41 481.79 L 708.99 478.48 L 713.58 475.19 L 718.18 471.93 L 722.8 468.68 L 727.44 465.46 L 732.09 462.26 L 736.75 459.08 L 741.43 455.92 L 746.12 452.79 L 750.83 449.67 L 755.54 446.57 L 760.27 443.48 L 765.01 440.42 L 769.76 437.37 L 774.52 434.34 L 779.29 431.33 L 784.07 428.33 L 788.86 425.35 L 793.66 422.38 L 798.47 419.43 L 803.28 416.49 L 808.11 413.56 L 812.94 410.65 L 817.82 407.73 L 822.53 404 L 826.1 399.17 L 828.31 393.59 L 829 387.63 L 828.12 381.69 L 825.73 376.18 L 822 371.47 L 817.17 367.9 L 811.59 365.69 L 805.63 365 L 799.69 365.88 L 794.18 368.27 L 789.22 371.24 L 784.24 374.27 L 779.28 377.31 L 774.33 380.39 L 769.4 383.48 L 764.48 386.6 L 759.57 389.75 L 754.69 392.92 L 749.81 396.11 L 744.96 399.32 L 740.11 402.55 L 735.28 405.81 L 730.47 409.08 L 725.67 412.38 L 720.88 415.69 L 716.1 419.02 L 711.34 422.37 L 706.59 425.73 L 701.85 429.12 L 697.12 432.52 L 692.4 435.93 L 687.7 439.36 L 683.01 442.8 L 678.32 446.26 L 673.65 449.73 L 668.99 453.21 L 664.33 456.71 L 659.69 460.22 L 655.07 463.76 L 650.47 467.32 L 645.89 470.92 L 641.33 474.54 L 636.8 478.19 L 632.29 481.87 L 627.8 485.58 L 623.33 489.31 L 618.89 493.07 L 614.47 496.85 L 610.07 500.66 L 605.69 504.49 L 601.33 508.35 L 596.99 512.22 L 592.67 516.12 L 588.38 520.04 L 584.1 523.98 L 579.83 527.94 L 575.59 531.91 L 571.36 535.91 L 567.15 539.92 L 562.96 543.94 L 558.78 547.98 L 554.61 552.03 L 550.46 556.1 L 546.32 560.18 L 542.19 564.26 L 538.08 568.36 L 533.97 572.47 L 529.88 576.59 L 525.8 580.72 L 521.72 584.86 L 517.66 589 L 513.6 593.16 L 509.55 597.32 L 505.51 601.48 L 501.48 605.66 L 497.45 609.84 L 493.44 614.02 L 489.42 618.22 L 485.43 622.43 L 481.48 626.68 L 477.57 630.96 L 473.69 635.28 L 469.86 639.64 L 466.06 644.02 L 462.29 648.44 L 458.57 652.89 L 454.88 657.37 L 451.22 661.88 L 447.59 666.41 L 444 670.96 L 440.44 675.54 L 436.9 680.14 L 433.39 684.76 L 429.91 689.4 L 426.45 694.05 L 423.01 698.72 L 419.58 703.4 L 416.18 708.09 L 412.79 712.78 L 409.41 717.49 L 406.04 722.2 L 402.68 726.91 L 399.33 731.63 L 395.99 736.35 L 392.64 741.07 L 389.3 745.78 L 385.96 750.5 L 382.62 755.21 L 379.28 759.92 L 375.93 764.63 L 372.58 769.33 L 369.23 774.03 L 365.87 778.73 L 362.52 783.44 L 359.27 788.2 L 356.11 793.04 L 353.03 797.93 L 350.04 802.88 L 347.14 807.88 L 344.3 812.93 L 341.53 818.01 L 338.82 823.13 L 336.16 828.28 L 333.54 833.45 L 330.95 838.63 L 328.38 843.81 L 325.81 849 L 323.24 854.17 L 320.66 859.34 L 318.06 864.48 L 315.43 869.6 L 312.76 874.7 L 310.04 879.76 L 307.27 884.79 L 304.45 889.79 L 301.57 894.75 Z" fill="url(#blueRibbon)"/>
    <path d="M 629.57 452.48 L 621.58 447.33 L 613.82 441.83 L 606.24 436.08 L 598.75 430.19 L 591.26 424.33 L 583.68 418.67 L 575.96 413.37 L 568.03 408.53 L 559.9 404.23 L 551.73 400.15 L 543.63 396.09 L 535.6 392.05 L 527.63 388.06 L 519.72 384.13 L 511.87 380.27 L 504.06 376.51 L 496.3 372.87 L 488.59 369.37 L 480.91 366.03 L 473.27 362.86 L 465.68 359.89 L 458.13 357.12 L 450.63 354.56 L 443.18 352.22 L 435.8 350.1 L 428.49 348.19 L 421.28 346.41 L 414.17 344.75 L 407.17 343.22 L 400.27 341.82 L 393.49 340.54 L 386.81 339.41 L 380.24 338.41 L 373.79 337.57 L 367.44 336.87 L 361.21 336.32 L 355.1 335.94 L 349.1 335.71 L 343.21 335.66 L 337.45 335.78 L 331.8 336.07 L 326.27 336.54 L 320.87 337.21 L 315.59 338.06 L 310.44 339.11 L 305.41 340.37 L 300.52 341.83 L 295.77 343.51 L 291.17 345.41 L 286.71 347.54 L 282.42 349.9 L 278.31 352.5 L 274.39 355.33 L 270.67 358.4 L 267.17 361.7 L 263.91 365.23 L 260.9 368.98 L 258.15 372.92 L 255.69 377.06 L 253.51 381.36 L 251.62 385.81 L 250.03 390.39 L 248.74 395.09 L 247.73 399.89 L 247.01 404.78 L 246.57 409.74 L 246.38 414.77 L 246.44 419.87 L 246.75 425.02 L 247.28 430.23 L 248.04 435.5 L 249.02 440.83 L 250.21 446.22 L 251.61 451.66 L 253.21 457.17 L 255.02 462.73 L 257.02 468.35 L 259.22 474.04 L 261.6 479.78 L 264.18 485.59 L 266.94 491.45 L 269.88 497.37 L 273.01 503.35 L 276.32 509.38 L 279.82 515.46 L 283.49 521.59 L 287.33 527.77 L 291.36 534 L 295.56 540.26 L 299.93 546.56 L 304.48 552.89 L 309.2 559.24 L 314.09 565.62 L 319.16 572.02 L 324.39 578.42 L 329.79 584.83 L 335.35 591.24 L 341.08 597.65 L 346.97 604.04 L 353.03 610.42 L 359.23 616.77 L 365.6 623.1 L 372.11 629.39 L 378.77 635.64 L 385.54 641.9 L 392.41 648.15 L 399.37 654.39 L 406.42 660.62 L 413.57 666.85 L 420.81 673.05 L 428.13 679.23 L 435.53 685.38 L 443.02 691.5 L 450.58 697.58 L 458.23 703.61 L 465.95 709.59 L 473.74 715.5 L 481.61 721.35 L 489.55 727.12 L 497.55 732.8 L 505.62 738.4 L 513.74 743.9 L 521.93 749.3 L 530.17 754.59 L 538.45 759.77 L 546.78 764.83 L 555.15 769.77 L 563.55 774.58 L 571.99 779.26 L 580.44 783.79 L 588.92 788.19 L 597.4 792.45 L 605.88 796.58 L 614.36 800.57 L 622.82 804.42 L 631.26 808.14 L 639.67 811.74 L 648.04 815.21 L 656.37 818.55 L 664.65 821.78 L 672.88 824.88 L 681.04 827.87 L 689.13 830.74 L 697.16 833.49 L 705.1 836.13 L 712.97 838.66 L 720.76 841.07 L 728.46 843.36 L 736.07 845.53 L 743.6 847.56 L 751.06 849.35 L 758.45 850.92 L 765.75 852.26 L 772.96 853.37 L 780.07 854.28 L 787.07 854.98 L 793.95 855.49 L 800.71 855.8 L 807.33 855.94 L 813.82 855.91 L 820.16 855.72 L 826.36 855.36 L 832.41 854.85 L 838.31 854.19 L 844.05 853.38 L 849.64 852.43 L 855.08 851.33 L 860.35 850.09 L 865.47 848.7 L 870.43 847.16 L 875.23 845.47 L 879.87 843.62 L 884.34 841.61 L 888.65 839.43 L 892.79 837.09 L 896.74 834.56 L 900.52 831.86 L 904.11 828.98 L 907.49 825.91 L 910.67 822.67 L 913.62 819.24 L 916.33 815.62 L 918.73 811.8 L 920.84 807.81 L 922.62 803.66 L 924.09 799.39 L 925.24 795 L 926.07 790.52 L 926.58 785.96 L 926.78 781.35 L 926.68 776.69 L 926.28 771.99 L 925.6 767.27 L 924.64 762.52 L 923.41 757.75 L 921.93 752.97 L 920.21 748.18 L 918.25 743.36 L 916.08 738.53 L 913.7 733.67 L 911.13 728.79 L 908.38 723.87 L 905.48 718.91 L 902.43 713.89 L 899.26 708.8 L 895.98 703.63 L 892.61 698.37 L 889.16 693.01 L 885.64 687.52 L 882.08 681.91 L 881.23 682.44 L 884.65 688.12 L 887.76 693.82 L 890.54 699.51 L 893.03 705.17 L 895.22 710.79 L 897.13 716.34 L 898.78 721.8 L 900.17 727.16 L 901.32 732.39 L 902.24 737.49 L 902.95 742.43 L 903.46 747.22 L 903.78 751.83 L 903.92 756.26 L 903.9 760.5 L 903.73 764.55 L 903.41 768.4 L 902.95 772.05 L 902.37 775.51 L 901.67 778.77 L 900.86 781.84 L 899.96 784.73 L 898.96 787.44 L 897.87 790 L 896.69 792.42 L 895.43 794.71 L 894.08 796.89 L 892.63 798.98 L 891.08 800.99 L 889.39 802.93 L 887.53 804.76 L 885.48 806.5 L 883.25 808.14 L 880.82 809.67 L 878.2 811.09 L 875.38 812.39 L 872.36 813.57 L 869.14 814.62 L 865.73 815.54 L 862.12 816.31 L 858.32 816.93 L 854.34 817.4 L 850.17 817.71 L 845.83 817.86 L 841.32 817.85 L 836.64 817.68 L 831.8 817.35 L 826.81 816.86 L 821.67 816.22 L 816.37 815.43 L 810.94 814.51 L 805.36 813.44 L 799.65 812.25 L 793.8 810.95 L 787.81 809.53 L 781.69 808.02 L 775.43 806.42 L 769.03 804.74 L 762.5 802.99 L 755.83 801.18 L 749.03 799.31 L 742.11 797.29 L 735.1 795.11 L 728 792.75 L 720.82 790.24 L 713.56 787.56 L 706.23 784.72 L 698.83 781.72 L 691.38 778.58 L 683.87 775.29 L 676.31 771.86 L 668.7 768.29 L 661.05 764.6 L 653.36 760.78 L 645.63 756.86 L 637.87 752.83 L 630.08 748.7 L 622.26 744.48 L 614.41 740.17 L 606.54 735.79 L 598.64 731.34 L 590.73 726.82 L 582.81 722.23 L 574.88 717.58 L 566.94 712.87 L 559.01 708.09 L 551.09 703.26 L 543.19 698.36 L 535.3 693.4 L 527.45 688.39 L 519.63 683.31 L 511.85 678.18 L 504.11 672.99 L 496.44 667.74 L 488.82 662.44 L 481.28 657.07 L 473.82 651.65 L 466.45 646.16 L 459.17 640.63 L 451.99 635.03 L 444.92 629.39 L 437.96 623.69 L 431.13 617.94 L 424.43 612.15 L 417.86 606.32 L 411.43 600.46 L 405.14 594.57 L 398.96 588.69 L 392.89 582.82 L 386.94 576.98 L 381.12 571.17 L 375.41 565.38 L 369.84 559.61 L 364.41 553.88 L 359.12 548.17 L 353.97 542.5 L 348.98 536.87 L 344.15 531.27 L 339.47 525.72 L 334.97 520.2 L 330.64 514.73 L 326.48 509.31 L 322.51 503.95 L 318.72 498.63 L 315.11 493.38 L 311.7 488.19 L 308.49 483.07 L 305.47 478.03 L 302.66 473.06 L 300.05 468.18 L 297.64 463.38 L 295.43 458.69 L 293.43 454.09 L 291.64 449.6 L 290.05 445.23 L 288.66 440.98 L 287.48 436.85 L 286.49 432.86 L 285.7 429.01 L 285.1 425.31 L 284.69 421.77 L 284.46 418.38 L 284.39 415.15 L 284.5 412.08 L 284.75 409.18 L 285.14 406.44 L 285.65 403.86 L 286.29 401.42 L 287.03 399.12 L 287.89 396.94 L 288.86 394.87 L 289.95 392.9 L 291.16 391.01 L 292.5 389.18 L 293.98 387.42 L 295.62 385.71 L 297.43 384.05 L 299.42 382.43 L 301.6 380.87 L 303.99 379.36 L 306.58 377.91 L 309.39 376.53 L 312.42 375.22 L 315.67 373.99 L 319.15 372.86 L 322.84 371.82 L 326.74 370.89 L 330.86 370.08 L 335.19 369.38 L 339.73 368.81 L 344.46 368.36 L 349.39 368.05 L 354.51 367.88 L 359.81 367.86 L 365.29 367.98 L 370.94 368.25 L 376.75 368.68 L 382.72 369.27 L 388.83 370.03 L 395.1 370.95 L 401.49 372.03 L 408.02 373.29 L 414.67 374.72 L 421.43 376.33 L 428.3 378.1 L 435.3 379.95 L 442.43 381.87 L 449.68 383.86 L 457.06 385.92 L 464.55 388.06 L 472.16 390.28 L 479.87 392.6 L 487.68 395.03 L 495.57 397.59 L 503.52 400.29 L 511.54 403.15 L 519.59 406.19 L 527.66 409.42 L 535.75 412.85 L 543.83 416.5 L 551.9 420.36 L 560.04 424.24 L 568.43 427.8 L 577.04 431.11 L 585.81 434.29 L 594.67 437.48 L 603.52 440.83 L 612.25 444.52 L 620.79 448.66 L 629.05 453.33 Z" fill="url(#orbitRibbon)"/>
    <circle cx="953" cy="296" r="70" fill="#405f8a"/>
  </g>
</svg>
